<?xml version="1.0" ?><svg id="Social_media" style="enable-background:new 0 0 90 90;" version="1.1" viewBox="0 0 90 90" xml:space="preserve" xmlns="http://www.w3.org/2000/svg" xmlns:xlink="http://www.w3.org/1999/xlink"><style type="text/css">
	.st0{fill:none;}
	.st1{fill:#FFFFFF;}
</style><g><path class="st0" d="M55.3,48.2c0.3-0.3,0.6-0.6,1-0.9C55.9,47.6,55.6,47.9,55.3,48.2C55.3,48.2,55.3,48.2,55.3,48.2z"/><path class="st0" d="M69.5,15.6C69.6,15.6,69.6,15.6,69.5,15.6C69.6,15.5,69.6,15.5,69.5,15.6C69.6,15.5,69.5,15.6,69.5,15.6z"/><path class="st0" d="M46.6,49c0.2-0.2,0.5-0.4,0.7-0.6c-0.6,0.4-1.2,0.8-1.9,1.3C45.9,49.5,46.2,49.2,46.6,49z"/><path class="st0" d="M24,53.9c0.4-0.4,0.9-0.7,1.3-1.1c-0.4,0.3-0.9,0.6-1.3,0.9C24,53.8,24,53.8,24,53.9z"/><path class="st0" d="M15.9,72c0.3,0.5,0.6,1,0.9,1.4c0.2-0.4,0.3-0.7,0.5-1.1C16.8,72.3,16.3,72.2,15.9,72z"/><path class="st0" d="M64.1,49c-0.1,0.1-0.3,0.2-0.4,0.4c0,0,0.1,0,0.1,0C63.9,49.2,64,49.1,64.1,49z"/><path class="st0" d="M20.8,76.1C20.8,76.1,20.7,76.1,20.8,76.1c0.3,0.2,0.7,0.3,1.1,0.3c0,0,0-0.1,0.1-0.1   C21.5,76.3,21.1,76.3,20.8,76.1z"/><path class="st0" d="M13.8,26.4c0,0.1,0,0.2,0,0.3c0.3-0.3,0.7-0.7,1-1C14.5,25.9,14.2,26.1,13.8,26.4z"/><path class="st0" d="M30.2,62.1c0.3-0.2,0.5-0.4,0.8-0.6c0.3-0.4,0.6-0.7,0.9-1.1C31.4,60.9,30.8,61.5,30.2,62.1z"/><path class="st0" d="M37,14c0.7-0.3,1.5-0.7,2.3-1c-0.5,0-1,0-1.5,0C37.5,13.4,37.3,13.7,37,14z"/><path class="st0" d="M62.9,77.5c1.7,0,3.3-0.1,4.9-0.4C66.1,77.1,64.5,77.2,62.9,77.5z"/><path class="st0" d="M75.7,61.8c0.1,0.4,0.1,0.8-0.1,1.2c0.1,0.1,0.2,0.3,0.3,0.4c0-0.7,0-1.4,0-2C75.8,61.5,75.8,61.6,75.7,61.8z"/><path class="st0" d="M59.1,77.3c-0.1,0-0.1,0.1-0.2,0.1c0.1,0,0.2,0,0.4,0C59.2,77.4,59.1,77.4,59.1,77.3z"/><path class="st0" d="M37.1,39c0.7-0.6,1.3-1.2,2-1.7c0-0.2,0-0.3,0-0.5c-0.3,0.3-0.6,0.5-0.9,0.8c-1.1,1-2.3,2-3.5,3   c0,0,0.1,0,0.1,0C35.5,40,36.3,39.5,37.1,39z"/><path class="st0" d="M37.9,62.4c0.5-0.5,1-0.9,1.5-1.4c0-0.1,0-0.2,0-0.3c-1.9,1.5-3.8,3.1-5.7,4.6c-0.3,0.3-0.5,0.6-0.8,0.9   C34.6,65,36.2,63.8,37.9,62.4C37.9,62.4,37.9,62.4,37.9,62.4z"/><path d="M80.5,31.1c-0.6-6.6,0.5-17.3-7-19.9c-1.6-0.6-3.4-1-5.2-1.2c-5.8-1.4-11.6-1.4-17.5-1.5c-7.2,0-14.4-0.5-21.6-1.1   c-3.6-0.3-6.4,0-9,1.1C14,9.9,10.6,15.9,9.8,22.5C8.5,32.7,9.4,43.7,9.6,54c0.1,7.9-1.2,19.7,5.8,25.2c2.5,1.9,5.9,2,8.8,2.4   c5.4,0.7,10.9,1.1,16.4,1.2c5.2,0.1,10.3-0.1,15.5-0.6c5.2-0.5,10.4,0.7,15.4-1.2c7.8-2.9,9.6-7.9,9.2-16   C80.1,53.7,81.5,42.5,80.5,31.1z M20.7,76.1C20.7,76.1,20.8,76.1,20.7,76.1c0.4,0.1,0.8,0.2,1.2,0.2c0,0,0,0.1-0.1,0.1   C21.5,76.3,21.1,76.2,20.7,76.1z M15.9,72c0.4,0.2,0.9,0.4,1.4,0.3c-0.2,0.4-0.4,0.7-0.5,1.1C16.4,72.9,16.1,72.5,15.9,72z    M64.1,49c-0.1,0.1-0.2,0.2-0.3,0.3c0,0-0.1,0-0.1,0C63.8,49.3,64,49.1,64.1,49z M55.3,48.2C55.3,48.2,55.3,48.2,55.3,48.2   c0.3-0.3,0.6-0.6,1-0.9C56,47.6,55.7,47.9,55.3,48.2z M46.6,49c-0.4,0.2-0.8,0.5-1.1,0.7c0.6-0.4,1.2-0.8,1.9-1.3   C47.1,48.6,46.9,48.8,46.6,49z M69.5,15.6C69.5,15.6,69.6,15.5,69.5,15.6C69.6,15.5,69.6,15.5,69.5,15.6   C69.6,15.6,69.6,15.6,69.5,15.6z M30.2,62.1c0.6-0.6,1.1-1.2,1.7-1.7c-0.3,0.4-0.6,0.7-0.9,1.1C30.8,61.6,30.5,61.9,30.2,62.1z    M24,53.9c0,0,0-0.1,0-0.1c0.4-0.3,0.9-0.6,1.3-0.9C24.8,53.2,24.4,53.5,24,53.9z M13.8,26.4c0.3-0.2,0.7-0.5,1-0.7   c-0.3,0.3-0.7,0.7-1,1C13.8,26.6,13.8,26.5,13.8,26.4z M33.6,65.4c1.9-1.6,3.8-3.1,5.7-4.6c-0.1-4.1-0.2-8.2-0.2-12.3   c0-0.7,0-1.5,0-2.2c-2.7,0.2-5.5,0.3-8.2,0.4c-2.3,0-2.5-3.2-0.7-4c0-1,0.6-2.1,1.9-2.1c0.8,0,1.6,0,2.5,0c1.2-1,2.4-2,3.5-3   c0.3-0.3,0.6-0.5,0.9-0.8c0-1.9,0.2-3.8,0.4-5.6c1.3-9.2,12.7-9,19.6-9c1.4,0,2.1,1.3,1.9,2.4c0.9,1.2,0.4,3.4-1.5,3.3   c-4.8-0.2-11.9-0.2-13.9,5.3c-0.8,2.2-1,4.6-1,7.1c4-0.2,7.9-0.4,11.8-0.8c0,0,0.1,0,0.1,0c0.1,0,0.1,0,0.2,0   c2.5-0.6,3.6,3.4,1.1,4c-4.3,1-8.6,1.7-12.9,2.2c0,0.1,0,0.2,0,0.3c0.8,7.8,0.2,15.1-0.4,22.9c-0.2,2-2.6,2.5-3.6,1.4   c-0.6-0.3-1.1-0.9-1.2-1.8c-0.1-2.5-0.2-5-0.3-7.4c-0.5,0.5-1,0.9-1.5,1.4c0,0,0,0,0,0c-1.6,1.3-3.3,2.6-5,3.9   C33.1,66,33.4,65.7,33.6,65.4z M75.9,63.4c-0.1-0.1-0.2-0.3-0.3-0.4c0.1-0.4,0.2-0.8,0.1-1.2c0.1-0.1,0.1-0.3,0.2-0.4   C75.9,62,75.9,62.7,75.9,63.4z M37,14c0.3-0.3,0.6-0.6,0.7-1c0.5,0,1,0,1.5,0C38.5,13.3,37.7,13.6,37,14z M58.9,77.4   c0.1,0,0.1-0.1,0.2-0.1c0.1,0,0.1,0.1,0.2,0.1C59.1,77.4,59,77.4,58.9,77.4z M62.9,77.5c1.6-0.3,3.3-0.4,4.9-0.4   C66.2,77.4,64.6,77.5,62.9,77.5z"/><path d="M34.7,40.6c1.4,0,2.9,0,4.3,0c0-1.1,0-2.2,0-3.2c-0.7,0.6-1.3,1.1-2,1.7C36.3,39.5,35.5,40,34.7,40.6z"/><path class="st1" d="M39.7,68.4c0.1,0.9,0.6,1.5,1.2,1.8c1,1.1,3.4,0.6,3.6-1.4c0.6-7.8,1.2-15.1,0.4-22.9c0-0.1,0-0.2,0-0.3   c4.3-0.5,8.6-1.3,12.9-2.2c2.5-0.6,1.5-4.5-1.1-4c-0.1,0-0.1,0-0.2,0c0,0-0.1,0-0.1,0c-3.9,0.4-7.9,0.6-11.8,0.8   c0-2.4,0.2-4.9,1-7.1c2-5.5,9.1-5.6,13.9-5.3c1.9,0.1,2.4-2.1,1.5-3.3c0.2-1.1-0.5-2.4-1.9-2.4c-6.9-0.1-18.2-0.2-19.6,9   c-0.3,1.8-0.4,3.7-0.4,5.6c0,0.2,0,0.3,0,0.5c0,1.1,0,2.1,0,3.2c-1.4,0-2.9,0-4.3,0c0,0-0.1,0-0.1,0c-0.8,0-1.6,0-2.5,0   c-1.3,0-1.9,1-1.9,2.1c-1.8,0.7-1.6,4,0.7,4c2.7,0,5.5-0.2,8.2-0.4c0,0.7,0,1.5,0,2.2c0,4.1,0.1,8.2,0.2,12.3c0,0.1,0,0.2,0,0.3   C39.5,63.5,39.6,66,39.7,68.4z"/></g></svg>